<?xml version="1.0" encoding="UTF-8" standalone="no"?>
<svg
   xmlns:dc="http://purl.org/dc/elements/1.1/"
   xmlns:cc="http://creativecommons.org/ns#"
   xmlns:rdf="http://www.w3.org/1999/02/22-rdf-syntax-ns#"
   xmlns:svg="http://www.w3.org/2000/svg"
   xmlns="http://www.w3.org/2000/svg"
   xmlns:sodipodi="http://sodipodi.sourceforge.net/DTD/sodipodi-0.dtd"
   xmlns:inkscape="http://www.inkscape.org/namespaces/inkscape"
   version="1.0"
   width="240.000000pt"
   height="240.000000pt"
   viewBox="0 0 240.000000 240.000000"
   preserveAspectRatio="xMidYMid meet"
   id="svg8"
   sodipodi:docname="iconmonstr-slack-1.svg"
   inkscape:version="0.92.2 2405546, 2018-03-11">
  <metadata
     id="metadata14">
    <rdf:RDF>
      <cc:Work
         rdf:about="">
        <dc:format>image/svg+xml</dc:format>
        <dc:type
           rdf:resource="http://purl.org/dc/dcmitype/StillImage" />
        <dc:title></dc:title>
      </cc:Work>
    </rdf:RDF>
  </metadata>
  <defs
     id="defs12" />
  <sodipodi:namedview
     pagecolor="#ffffff"
     bordercolor="#666666"
     borderopacity="1"
     objecttolerance="10"
     gridtolerance="10"
     guidetolerance="10"
     inkscape:pageopacity="0"
     inkscape:pageshadow="2"
     inkscape:window-width="1920"
     inkscape:window-height="1144"
     id="namedview10"
     showgrid="false"
     inkscape:zoom="2.7108887"
     inkscape:cx="160"
     inkscape:cy="160"
     inkscape:window-x="0"
     inkscape:window-y="28"
     inkscape:window-maximized="1"
     inkscape:current-layer="svg8" />
  <g
     transform="translate(0.000000,240.000000) scale(0.100000,-0.100000)"
     fill="#000000"
     stroke="none"
     id="g6">
    <path
       d="M1249 2386 c-302 -44 -715 -188 -912 -320 -158 -104 -270 -256 -312 -421 -51 -197 -18 -479 97 -834 98 -303 206 -501 340 -625 78 -73 192 -135 293 -161 197 -51 479 -18 834 97 303 98 501 206 625 340 149 160 207 371 177 638 -36 312 -184 752 -325 963 -104 157 -255 269 -421 313 -83 21 -279 26 -396 10z m95 -430 c44 -18 60 -43 92 -141 15 -44 28 -82 31 -84 2 -3 43 8 92 24 99 31 143 29 186 -8 31 -26 45 -79 33 -124 -12 -45 -56 -77 -148 -108 -44 -15 -80 -30 -80 -33 0 -13 93 -287 99 -295 4 -4 41 4 82 19 91 31 147 34 182 8 38 -27 60 -79 53 -120 -12 -59 -45 -87 -145 -119 -50 -16 -91 -32 -91 -35 0 -4 12 -40 26 -81 32 -93 34 -151 7 -187 -29 -40 -62 -53 -113 -48 -61 6 -98 49 -130 151 -13 42 -28 79 -33 82 -4 3 -77 -19 -161 -48 l-152 -53 29 -92 c32 -102 32 -143 -4 -188 -11 -14 -37 -31 -59 -37 -33 -10 -44 -9 -83 10 -47 23 -62 48 -102 169 -9 28 -22 52 -28 52 -7 0 -48 -12 -92 -26 -101 -32 -142 -27 -186 23 -28 33 -31 41 -26 86 6 67 39 97 145 132 45 15 82 32 82 38 0 12 -90 289 -96 296 -1 1 -40 -9 -84 -24 -132 -44 -209 -22 -229 66 -18 81 20 128 133 165 45 15 85 30 89 34 5 4 -5 50 -22 103 -25 79 -28 100 -20 130 21 79 112 111 185 67 32 -21 48 -52 84 -165 7 -22 15 -43 19 -47 5 -6 302 85 318 96 1 1 -11 44 -28 96 -32 99 -32 133 -3 178 16 24 66 51 97 52 10 0 33 -6 51 -14z"
       id="path2" />
    <path
       d="M1136 1350 c-77 -28 -141 -51 -143 -53 -8 -9 100 -308 111 -304 6 2 77 26 159 53 81 27 147 51 147 54 0 3 -22 71 -48 150 -39 116 -53 145 -68 147 -10 1 -82 -20 -158 -47z"
       id="path4" />
  </g>
</svg>
